<?xml version="1.0" encoding="UTF-8"?>
<svg id="Layer_1" data-name="Layer 1" xmlns="http://www.w3.org/2000/svg" viewBox="0 0 1008.23 1024">
  <defs>
    <style>
      .cls-1 {
        fill: #79a214;
      }

      .cls-2 {
        fill: #fefdf8;
      }

      .cls-3 {
        fill: #e97500;
      }

      .cls-4 {
        fill: #4a8310;
      }

      .cls-5 {
        fill: #fefefe;
      }

      .cls-6 {
        fill: #d45300;
      }

      .cls-7 {
        fill: #f29501;
      }

      .cls-8 {
        fill: #2c250a;
      }
    </style>
  </defs>
  <path class="cls-2" d="M225.19,0c1.26,1.65,5.74,1.65,7,0h544c.66,1.58,4.34,1.58,5,0h3c-.56,3.03,1.53,1.92,3.45,2,115.16,5.33,216.88,108.24,220.59,226.45v565.08c-4.78,97.23-66.28,181.86-156.98,215.88-16.05,6.02-36.31,11.25-54.6,12.6-1.91.14-4.02-1.12-3.47,1.99h-3c-.66-1.58-4.34-1.58-5,0H225.19c-.66-1.58-4.34-1.58-5,0h-4c.56-3.22-1.62-1.72-3.5-1.95C95.45,1007.6,7.91,913.76.14,796.54c.84-193.62-1.47-387.4,1.17-580.91C13.15,103.66,103.72,11.49,217.72,1.99c1.91-.16,4.02,1.13,3.47-1.99h4ZM507.29,34.92c-11.14-20.68-53-11.56-66.65,2.04-1.32,1.31-5.19,7.7-5.61,7.94-.59.33-6.43-1.73-8.36-1.89-18.7-1.52-44.31,10.69-50.98,29-8.27,22.7,1.98,60.36,14.47,80.49-38.89,18.85-66.98,49.92-69.02,94.96-.2,4.37,1.3,13.05.86,15.84-.34,2.15-5.35,8.5-6.7,11.32-10.17,21.28-14.99,46.23-13.1,69.86.43,5.44,3.38,13.03,3.05,18-.23,3.48-4.44,10.22-5.78,14.31-10.64,32.55-6.9,76.98,15.55,103.93l-1.85,23.27-8.97-13.51c-17.56-19.42-32.17-13.8-52.03-20.97-6.17-2.23-14.83-9.12-21.99-12.01-20.54-8.28-51.82-10.01-61.48,14.51-8.24,20.89,3.71,36.48,20.47,47.49-13.22,13.38-22.17,33.22-16.02,52.04,3.21,9.83,2.88,9.4,4.15,19.85,2.95,24.35,30.19,38.22,52.74,32.95,3.15-.74,9.39-4,10.82-4.13,2-.17,14.14,4.78,19.82,4.86,4.86.06,15.98-4.02,16.84-3.87,1.01.17,3.27,2.32,4.98,2.99,19.87,7.76,38.18,5.68,54.68-8.19,2.2,17.1,7.82,31.72,17.79,45.72,1.64,2.3,9.79,11.21,10.02,11.98,1.06,3.56-.13,10.32.33,14.67,1.56,14.72,5.32,29.38,11.01,42.99l11.85,21.64-53.98-9c-.53-12.12-1.53-24.34-3.13-36.38-.35-2.64-1.71-16.27-3.4-16.63l-99.36,69.69,1.03,3.66c33.02,45.78,62,94.73,97.3,138.7l3.54.95,3.02-43c44.44,11.96,89.81,21.07,135.89,24.11,1.32,6.11,5.02,11.81,9.08,16.41,2.17,2.46,9.79,8.07,10.49,9.51,1.3,2.68,1.78,8.48,3.08,11.92,11.7,30.91,62.96,99.31,96.8,56.78,14.35-18.04,7.32-51.57-.4-71.24,1.31-3.64.29-19.89,1.99-21.06,53.69-3.7,105.72-15.93,154.45-38.55,8.01-3.72,17.69-8.35,25.29-12.71,5.53-3.17,14.33-7.28,15.24-13.76.62-4.43.92-12.08,1.13-16.87,1.34-29.5.55-58.72,1.92-88.08.49-10.45,3-20.9,2.04-31.45-1.09-1.14-14.97,8.78-17.32,10.17-41.06,24.24-80.79,41.14-127.66,51.34-6.18,1.35-48.02,9.5-50.02,7.49-1.74-7.89,2.51-9.39,5.52-14.99,8.93-16.61,14.44-34.12,16.59-52.9,2.6.62,10.45-1.12,11.95-.56,1.19.44,5.7,6.01,8.25,7.65,16.97,10.91,43.05,3.53,51.57-14.82,2.36-5.08,2.75-15.99,3.61-17.39.28-.46,7.35-4.61,8.99-6.01,3.81-3.26,6.78-7.37,9.38-11.63.77-1.26,1.01-3.96,1.29-4.19.89-.75,18.64-3.3,22.87-4.63,45.23-14.25,76.04-57.49,65.5-105.52-11.08-50.51-71.49-70.52-116.3-78.7-2.46-.45-12.62-.84-12.97-2.75.88-8.08,1.4-17.92.8-26.08-.3-4.07-3.22-13.11-2.84-15.75.65-4.63,7.69-18.79,9.52-25.5,6-21.99,7.38-44.65,2.61-67.04-.74-3.47-4.18-11.39-4.23-13.65-.07-2.89,4.38-12.62,5.4-16.52,10.61-40.74,1.2-76.32-32.31-102.49,18.9-20.19,43.17-64.72,13.74-85.94-2.34-1.69-11.12-5-11.47-5.53-.71-1.07-.81-11.74-2.25-15.75-6.56-18.21-41.57-29.67-59.2-24.29.55-13.91-13.68-19.45-25-22.5-12.32-3.32-35.55-4.19-47.28.73-4.46,1.87-7.15,5.81-11.62,6.7Z"/>
  <path class="cls-5" d="M232.19,0c-1.26,1.65-5.74,1.65-7,0h7Z"/>
  <path class="cls-5" d="M790.19,1024h-5c.66-1.58,4.34-1.58,5,0Z"/>
  <path class="cls-5" d="M781.19,0c-.66,1.58-4.34,1.58-5,0h5Z"/>
  <path class="cls-5" d="M225.19,1024h-5c.66-1.58,4.34-1.58,5,0Z"/>
  <path class="cls-8" d="M507.29,34.92c4.47-.88,7.16-4.83,11.62-6.7,11.74-4.92,34.96-4.05,47.28-.73,11.32,3.05,25.56,8.59,25,22.5,17.63-5.37,52.64,6.08,59.2,24.29,1.44,4.01,1.54,14.68,2.25,15.75.35.53,9.13,3.84,11.47,5.53,29.43,21.22,5.15,65.75-13.74,85.94,33.51,26.17,42.92,61.75,32.31,102.49-1.02,3.91-5.47,13.63-5.4,16.52.05,2.26,3.49,10.19,4.23,13.65,4.77,22.39,3.39,45.05-2.61,67.04-1.83,6.71-8.87,20.87-9.52,25.5-.37,2.64,2.55,11.68,2.84,15.75.6,8.16.08,18.01-.8,26.08.35,1.9,10.5,2.3,12.97,2.75,44.82,8.18,105.22,28.19,116.3,78.7,10.54,48.03-20.28,91.28-65.5,105.52-4.23,1.33-21.98,3.88-22.87,4.63-.28.24-.53,2.93-1.29,4.19-2.6,4.27-5.57,8.37-9.38,11.63-1.64,1.4-8.71,5.55-8.99,6.01-.85,1.4-1.25,12.31-3.61,17.39-8.52,18.35-34.6,25.74-51.57,14.82-2.55-1.64-7.06-7.2-8.25-7.65-1.5-.56-9.34,1.18-11.95.56-2.15,18.79-7.66,36.29-16.59,52.9-3.01,5.6-7.26,7.1-5.52,14.99,1.99,2.01,43.84-6.15,50.02-7.49,46.87-10.2,86.6-27.1,127.66-51.34,2.36-1.39,16.23-11.3,17.32-10.17.96,10.55-1.55,21.01-2.04,31.45-1.37,29.37-.58,58.59-1.92,88.08-.22,4.78-.52,12.44-1.13,16.87-.9,6.49-9.71,10.59-15.24,13.76-7.6,4.36-17.28,8.99-25.29,12.71-48.73,22.62-100.76,34.85-154.45,38.55-1.69,1.17-.68,17.42-1.99,21.06,7.72,19.67,14.75,53.2.4,71.24-33.84,42.54-85.1-25.87-96.8-56.78-1.3-3.44-1.78-9.23-3.08-11.92-.7-1.45-8.32-7.06-10.49-9.51-4.06-4.6-7.77-10.31-9.08-16.41-46.07-3.04-91.45-12.15-135.89-24.11l-3.02,43-3.54-.95c-35.3-43.97-64.28-92.93-97.3-138.7l-1.03-3.66,99.36-69.69c1.68.35,3.05,13.99,3.4,16.63,1.61,12.04,2.6,24.26,3.13,36.38l53.98,9-11.85-21.64c-5.7-13.6-9.45-28.27-11.01-42.99-.46-4.34.72-11.1-.33-14.67-.23-.77-8.38-9.68-10.02-11.98-9.97-14-15.59-28.62-17.79-45.72-16.5,13.87-34.81,15.95-54.68,8.19-1.71-.67-3.98-2.81-4.98-2.99-.86-.15-11.97,3.93-16.84,3.87-5.68-.07-17.83-5.03-19.82-4.86-1.42.12-7.67,3.39-10.82,4.13-22.55,5.27-49.79-8.6-52.74-32.95-1.27-10.45-.93-10.02-4.15-19.85-6.15-18.82,2.8-38.65,16.02-52.04-16.76-11.01-28.7-26.6-20.47-47.49,9.67-24.52,40.94-22.8,61.48-14.51,7.17,2.89,15.82,9.78,21.99,12.01,19.86,7.17,34.47,1.55,52.03,20.97l8.97,13.51,1.85-23.27c-22.45-26.95-26.19-71.38-15.55-103.93,1.34-4.09,5.54-10.83,5.78-14.31.33-4.97-2.62-12.56-3.05-18-1.89-23.64,2.94-48.59,13.1-69.86,1.35-2.82,6.37-9.18,6.7-11.32.44-2.79-1.06-11.47-.86-15.84,2.04-45.04,30.13-76.1,69.02-94.96-12.49-20.13-22.74-57.79-14.47-80.49,6.67-18.31,32.27-30.52,50.98-29,1.93.16,7.77,2.22,8.36,1.89.42-.24,4.29-6.63,5.61-7.94,13.65-13.6,55.51-22.72,66.65-2.04ZM474.96,36.28c-6.21.71-18.8,4.51-23.72,8.28-5.9,4.52-8.57,17.78-9.1,24.9-1.66,22.62,1.54,46.47,4.21,68.87l1.47,1.53,45.87-.86c1.18-.06,1.97-.46,2.36-1.64,2.53-7.74-2.59-24.14-.9-32.9-.05-16.14,5.01-34.27,5.13-49.96.14-17.73-10.09-19.96-25.31-18.22ZM528.97,38.28c-5.75.73-8.73,2.08-12.2,6.8-8.45,11.51-10.18,48.55-10.63,63.37-.15,4.91-.85,25.92.17,28.91,1.16,3.38,12.3,2.31,15.36,2.64,12.31,1.31,24.54,3.49,36.83,4.87,2.22-.72,5.26-12,6.17-14.89,5.02-15.85,17.42-63.54,14.07-78.07-3.52-15.25-37.73-15.18-49.79-13.65ZM428.94,56.24c-6.28-5.4-30.29,5.99-35.65,11.36-13.73,13.78-5.28,47.55.88,63.91.84,2.22,6.65,16.28,7.69,16.54l34.33-6.06c-2.93-14.63-6.27-29.52-7-44.51-.32-6.6,2.63-38.77-.26-41.25ZM590.19,74c-2.52,11.92-4.24,24.14-7,36-2.46,10.59-8.38,24.84-9.78,34.75-.2,1.38-.66,3.08.22,4.31,1.13,1.58,32.59,8.59,36.97,11.8,5.94-7.2,9.98-15.76,13.78-24.19,5.96-13.2,17.93-42.97,14.35-56.71-3.11-11.95-31.09-20.65-41.96-18.9-6.35,1.02-5.51,7.95-6.57,12.93ZM649.26,104.09c-2.41,9.33-6.03,18.78-9.91,27.59-2.25,5.12-16.23,30.34-16.19,32.88.01.89.19,1.51,1.02,1.95,4.39.29,10.19,7.04,13.69,7.34,2.03.18,7.17-7,8.71-8.94,9.38-11.85,22.1-33.75,17.32-49.11-1.72-5.53-8.19-13.01-14.64-11.7ZM327.19,475c.6.88.89,3.13,2,3,.47,6.76-3.35,12.88-3.99,19.51-.75,7.71-.07,17.09.99,24.49,2.56,17.79,12.67,40.02,24,54-1.11,13.16-1.01,25.91,1,39,3.32,21.69,10.91,34.7,25,51,2.05,6.27.45,13.04,1.01,19.49s2.45,13.12,3.99,19.51c2.63,10.91,4.97,19.05,10.48,29.02,1.85,3.34,12.25,19.06,14.56,20.44,2.13,1.28,13.96,2.16,17.47,2.53,7.42.77,22.85,2.76,29.5,2,11.52,1.12,22.99.66,34.54.96,2.26.06,4.33,1,6.46,1.04.33,0,.67,0,1,0,1,.02,2,0,3,0,.33,0,.67,0,1,0,1.93-.04,4.19.23,6,0l47.49-1.01,28.87-3.13c2.67-.83,1.28-9.13,2.31-12.69,1.39-4.81,8.62-14.85,11.18-20.82,5.5-12.8,8.95-26.62,9.16-40.66-2.93-.71-9.23-8.21-10.63-8.47-3.14-.58-8.97.64-14.42-.7-10.89-2.67-25.97-16.4-25.97-28.03v-14.5c-12.65,3.02-26.07,3.02-38.55-.95-3.13-1-13.12-5.28-15.45-7.05-13.09-9.91-13.02-31.91-1.54-43.04,10.97-10.64,36.7-11.96,51.55-15.45,5.39-1.26,10.62-3.3,15.99-4.51,12.63-2.85,26.6-7.07,39.51-7.99,4.15-.3,24.42,1.18,25.5.5,1.99-1.24,7.55-15,5.99-16.52-8.82-1.51-26.76-3.14-28-13.99,32.83,1.05,67.28,5.28,97.68,17.85,2.08.21,4.21-4.16,5.32-5.85,2.85-.6,2.17,1.66,2.05,3.51-.98,14.62-28.16,31.48-42.04,32.5-1.05.94,10.14,11.73,8.99,14.99-9.51-3.9-17.45-10.56-27.01-14.48-7.28-2.98-16.19-5.44-23.98-6.52-21.69-3-37.22.21-58,5-5.67,1.31-11.15,3.38-16.79,4.71-12.78,3.01-44.94,6.07-52.05,16.95-4.41,6.76-4.39,12.74-.16,19.34.7,1.09.19,1.74,2.03,3.44,10.76,9.91,41.7,13.97,52.63,3.22,1.27-1.25,11.19-17.39,11.33-18.67,5.54-4.64,9.84-14.18,18-13.99,1.13,1.04-13.07,23.94-14.48,27.01-7.14,15.47-14.03,36.04,3.49,46.99,4.97,3.11,9.02,4.54,14.99,5,1.03-2.63-1.78-5.35-1.99-7-2.4-18.59,5.54-29.82,14.95-44.55.68-1.38,4.56-1.94,5.05-1.44,2.19,2.23-8.2,23.69-9.29,28.2-2.89,11.94-1.1,24.63,9.3,31.8,5.76,3.97,8.33,4.75,16,4-2.49-11.87-3.38-21.32,1.83-32.66,1.02-2.22,4.73-8.83,6.17-10.33,1.21-1.26,7.55-5.3,9-3.99-7.09,15.62-13.92,29.32-5,45.99,5.4,10.08,11.6,14.08,23.49,12.98,9.73-.9,20.55-10.17,19.6-20.49-.23-2.5-5.38-3.05-7.43-2.55-.43.1-4.18,8.65-6.19,5.09-1.53-2.72-.4-15.74,2.51-17.59,2.41-1.53,4.91,1.57,7,2.12,8.02,2.12,19.23-5.93,23.44-12.64,2.12-3.38,5.15-14.28,7.28-14.8,1.4-.34,5.65,2.04,9.66,1.78,25.91-1.68,57.57-24.37,68.13-47.91,13.93-31.05,4.03-73.2-28.49-87.99-.31-.35-.62-.72-1-1-.75-.56-1.63-.73-2-1-31.22-23.13-77.85-26.21-115-34-.9-1.1-6.21-4.27-5-5.99,8.63-2.47,17.16-1.12,25.94-1.07,1.12-7.3,1.6-15.02,1.04-22.43-.44-5.87-4.24-15.74-4.06-20s9.23-24.61,11-32.09c3.88-16.41,5.46-33.04,2.91-49.77-.94-6.2-7.05-22.48-6.81-26.09.14-2.24,3.06-6.33,4-9.04,10.17-29.66,10.01-54.74-9.6-80.44-12.25-16.05-47.53-35.32-67.42-38.08-8.39-3.62-17.91-6.54-26.79-8.71-72.52-17.72-219.93-19.16-227.2,83.22-.45,6.36,1.73,17.48.97,21.92-.61,3.56-8.7,16.22-10.75,21.3-6,14.9-10.29,34.68-9.22,50.75.45,6.75,4.35,18.25,3.95,23.9-.32,4.46-5.67,13.74-7.24,18.83-10.14,32.77-4.63,65.89,14.28,93.78ZM190.19,505c.19.16.79-.16,1,0,.36.28.62.73,1,1,8.77,6.2,16.16,8.72,26.77,10.73,3.55.67,23.51,2.29,24.22,3.28,1.44,1.99-7.34,5.67-8.99,6.01-.8,2.69,1.47,1.8,2.5,2.93s1.88,3.54,3.17,3.95c2.03.65,6.44-1.43,8.93-1.8s5.17.25,7.69-.31c3.57-.79,7.1-7.62,10.79-3.34.74.86.61,2.07.91,2.54,2.07,3.17,4.05,1.48,7.06,2.44.97.31,8.99,2.78,6.95,4.55-1.13.97-22.3,1.23-27.2,2.31-11.48,2.52-30.05,13.75-24.8,27.7,4.02,10.66,20.3,13.88,30.38,12.88,4.03-.4,23.45-7.03,24.62-5.87,2.98,2.94-7.27,10.09-9.31,11.18-5.48,2.92-12.4,4.7-18.57,4.93-1.04,7.26-2.03,13.6-6.11,19.87,18.11,6.78,30.47-7.15,44.99-14.99.25,2.76-.76,5.23-1.8,7.69-1.66,3.9-4.87,6.47-6.18,10.31,8.97,2.53,15.78,3.95,25.04,1.55,6.96-1.8,22.08-10.4,22.98-18.02,1.84-15.57-1.36-15.85-7.54-27.5-3.49-6.58-6.4-13.48-9.98-20.02-1.44,4-2.16,8.27-3.73,12.26-.51,1.3-6.39,14.3-8.76,11.73,2.56-10.9,4.89-21.11,3.98-32.48-.37-4.59-2.03-8.39-2.98-12.52-.14-.6.15-1.43,0-2-.3-1.14-.89-1.65-1-2-.1-.3.1-.7,0-1-.35-1.01-.8-1.5-1-2-.12-.29.12-.73,0-1-.35-.79-.61-1.27-1-2-3.72-14.48-15.22-26.67-29.55-30.95-8.45-2.53-19.17-2.89-27.47-5.53-18.38-5.85-24.75-19.32-49.48-16.52-22.11,2.51-23.48,26.49-7.5,40ZM195.19,532c-7.99,8.8-12.09,21.15-11,33,.17,1.81.52,2.46,1,4,4.99,15.87,26.97,16.04,40,10.99-.65-3.74-3.54-6.03-4.72-9.77-2.14-6.78-1.48-13.52,1.54-19.9,1.24-2.62,8.15-10.3,8.04-11.65-.31-3.64-7-7.01-9.86-8.68-.76-.45-1.42-.68-2-1-.32-.17-.59-.78-1-1h-1c-.71-.47-.56-.95-2-1-8.63-3.8-13.19-1.4-19,5ZM695.19,547.01l-45.34-8.07c-.52,2.63-7.38,16.2-6.66,17.05,5.38-.32,11.16,4.13,15.76,4.8,9.46,1.37,28.96-7.28,36.24-13.78ZM190.19,590.01c2.64,21.23,36.27,29.97,49.44,14.94,3.01-3.44,6.64-11.72,4.07-15.96-.33-.55-10.32-5.69-11.18-5.77-3.04-.27-5.82,4.51-8.63,5.98-8.86,4.67-24.25,3.2-33.7.8ZM712.18,755c-.81-.8-20.58,3.2-22.51,4-.95.39-2.05.31-2.36,1.63l.87,50.37c3.88-.93,18.23-2.64,19.8-5.69,1.91-16.72,4.82-33.43,4.2-50.31ZM661.08,773.11c-26.19-8.79-59.21,8.67-61.88,37.41-2.65,28.51,11.66,47.15,41.47,44.47,5.48-.49,24.75-6.25,27.07-11.01,1.1-2.27-7.16-15.26-9.07-17.98-13.21,10.43-33.3,11.61-34.5-9.53-1.1-19.45,15.89-29.25,33.01-22.46,1.64-6.86,3.89-13.74,3.91-20.89ZM446.17,836c-19.35,7.77-38.28,1.42-34.9-22.41,2.45-17.29,26.19-16.7,36.42-6.69,3.7-3.2,9.79-16.73,6.5-20.41-4.8-5.37-27.25-9.04-34.49-8.47-30.16,2.38-43.43,34.53-31.4,60.37,8.77,18.83,37.69,26.04,56.54,20.77,1.35-.38,4.86-1.38,5.72-2.05,3.04-2.38-4.45-17.26-4.39-21.1ZM577.19,779c-3.64,1.16-23.52,1.45-24.56,2.94l-.49,2.51,1.19,75.91c1.4,4.23,19.44-.64,23.86.64v-82ZM531.19,844h-29.5c-1.1,0-1.43-2.44-1.55-3.45-1.2-10.24-.27-27.24,0-38.09.07-2.65,2.99-20.46-.46-20.46h-23.5v81c14.76-.4,29.71,2.23,44.49.98,3.82-.32,10.51-.69,10.51-5.49v-14.5ZM694.91,820.23c-12.44,2.58-14.66,24.18.77,23.85,18.34-.4,20.66-28.3-.77-23.85ZM488.19,893c.32.35.68.66,1,1,.67.71,1.46,1.41,2,2,10.92,12.04,9.84,18.53,16.47,32.03,8.18,16.65,24.74,36.54,40.53,45.97,8.3,4.96,17.83,9.79,26.65,1.65,12.68-11.69,8.81-36.64,4.61-51.42-1.11-3.9-5.07-11.76-5.2-14.81-.15-3.42,4.99-19.37,2.94-21.43l-95-1.99c.81,3.46,4.06,4.91,6,6.99Z"/>
  <path class="cls-3" d="M589.19,170c-1.28-.18-7.46-1.97-4.99.98.43.52,9.15,5.15,11.46,7.05,30.19,24.79,35.87,64.76,16.34,98.28-1.41,2.43-7.65,9.93-7.84,11.25-.29,2.06,5.05,16.81,5.77,21.21,3.84,23.57,1.89,51.81-10.9,72.57-1.49,2.42-7.66,8.13-7.87,10.2-.17,1.69,3.7,9.58,4.53,12.47,9.51,33.06-3.09,77.69-26.1,102.89-2.11,2.31-11.7,9.39-12.21,11.76-.57,2.64,7.27,7.52,9.25,10.41,3.56,5.2,4.59,13.09,3.34,19.21-.78,3.79-5.72,7.91-4.78,11.73-5.37,1.21-10.6,3.25-15.99,4.51-14.86,3.49-40.59,4.81-51.55,15.45-11.47,11.13-11.55,33.13,1.54,43.04-2.08.61,0,2.98.58,3.92,10.93,17.91,17.86,13.68,33.97,20.03,12.85,5.06-.6,18.09-7.63,22.46-27.92,17.36-94.98,9.74-123.59-5.25-22.33-11.69-40.56-27.91-49.34-52.16l-1.99,2.99c-2.01-13.09-2.11-25.84-1-39,1.35,1.66,1.43,3.58,3.61,4.89,1.96,1.18,10.73,3.6,13.61,4.39,20.43,5.61,52.85,9.03,72.99,2.43,4.84-1.58,10.04-3.06,1.3-4.73-28.75-5.52-67.41-5.48-87.49-29.51l-26.04-38.46-1.99,6.99c-1.06-7.4-1.74-16.78-.99-24.49.64-6.63,4.46-12.75,3.99-19.51.17-.02.54-.85.96-1.01.09,4.01,4.15,5.73,7.35,7.21,12.66,5.84,32.31,8.89,45.69,5.31l-23.24-6.76c-17.26-6.57-34.49-15.28-42.77-32.74-1.93-.22-.54,1.82-.28,2.77.49,1.75,1.26,3.46,1.81,5.2l8.48,17.02c-18.91-27.9-24.42-61.01-14.28-93.78,1.57-5.09,6.92-14.37,7.24-18.83.4-5.64-3.5-17.15-3.95-23.9-1.06-16.07,3.23-35.85,9.22-50.75,2.05-5.08,10.13-17.74,10.75-21.3.77-4.44-1.42-15.56-.97-21.92,7.27-102.38,154.68-100.95,227.2-83.22,8.88,2.17,18.4,5.08,26.79,8.71ZM421.93,183.7c-2,1.15-4.79-.63-7-.46-17.64,1.3-37.65,19.43-34.67,38.2,1.98,12.49,13.89-3.97,17.99-6.87,5.71-4.04,15.51-7.91,22.45-8.55,9.82-.91,22.51,6.33,21.41-7.38-.84-10.45-8-16.68-18.49-16.7-1.78,0-1.31,1.57-1.68,1.78ZM528.97,185.28c-11.44,1.44-19.28,9.86-16.35,21.79,1.9,7.71,7.64,3.61,13.08,3.85,13.1.59,29.77,3.29,39.96,12.1,3.24,2.8,8.17,11.33,11.97,11.02,5.93-.48,4.21-13.97,3.1-18.09-5.28-19.62-32.42-33.11-51.76-30.68ZM577.18,359.99c18.3-31.82,22.29-84.46-8.53-109.96-53.99-44.68-118.49,47.91-83.64,106.64,10.57,17.81,21.55,23.78,41.45,26.54,1.33.19,2.68,1.78,4.23,1.75,1.4-.03,11.2-7.43,14.12-8.84,14.46-7.01,31.65-8.65,47.37-6.13,2.19-1.99-11.83-11.48-15-10ZM387.19,396c-3.19-17.07,7.42-31.32,23.02-37.48,18.8-7.43,37.05-2.56,54.98,4.48-1.29-9.53-11.47-13.69-19.07-17.63-.47-3.54,2.37-5.53,3.56-8.38,8.33-19.9,8.96-43.84,1-63.97-16.17-40.9-61.25-41.6-82.29-4.32-16.76,29.71-15.14,77.98,16.74,96.91-16.55,27.64.33,58.24,30.07,65.4l-5.99.99c3.82-.07,4.65,3.88,8.3,6.2,15.99,10.14,43.47,8.67,54.08-8.3,4.99-7.97,6.3-14.06,5.61-22.89-.23-2.93-.73-5.34-1-8-.05-.47,2.01-2.33.04-3.53-8.89-3.04-14.8,3.88-22.34,6.73-16.42,6.19-38.71,7.49-54.58-.81-3.74-1.95-10.06-5.78-10.12-10.38l-1.99,4.99ZM338.91,282.15c-4.38,1.2-10.56,14.87-10.8,19.33-.53,9.87,9.71,23.16,18.09,13.04,5.96-7.19,7.12-19.03,1.82-26.84-1.85-2.72-5.52-6.5-9.11-5.52ZM341.92,362.24c-16.85,2.77-24.48,28.5-7.96,30.58,13.75,1.73,32.91-34.68,7.96-30.58ZM418.97,363.2c-5.39.42-15.99,5.37-16.77,11.39-1.83,14.07,22.56,13.63,30.91,7.85,14.55-10.06-2.68-20.13-14.15-19.23ZM566.19,413l13.02,4.52c3.4-2.5-1.37-10.96-3.5-13.55-7.9-9.58-27.46-14.27-37.01-4.97-8.86,8.62-.4,7.48,5.87,8.11.38.04,6.33.55,5.13,1.89-35.5,29.85-72.83,48.74-120.52,37.5-5.93-1.4-20.98-9-24.99-7.01-4.27,2.12-.93,8.04,2.03,9.97s6.62,1.42,9.44,3.56c10.77,26.93,23.43,58.28,50.84,72.16,33.52,16.97,63.6.32,80.21-30.16,13.22-24.27,20.89-54.34,19.48-82.02ZM345.44,500.26c-5.38,5.11.98,11.56,5.41,14.57,8.45,5.74,34.06,11.63,42.7,6.03,4.97-3.22,3.88-7.13-.31-10.42-3.17-2.49-32.71-10.87-37.67-11.32-2.61-.24-8.24-.66-10.13,1.13ZM535.19,537c-.1-.09.41-1.72-.65-2.01-6.11-1.68-14.47,4.66-20.09,6.78-3.27,1.23-16.08,5.24-18.76,5.24h-17c-1.27,0-3.81-1.9-6.5.01l1,1.99c-1.88-.55-4.82-1.53-6,.52-1.67,6.46,19.08,13.02,24,13.48l-3,1.99c19.31,2.36,41.57-.75,49.98-20.5.63-1.47,1.91-3.36-.99-1.49,3.28-8.23-1.67-5.7-2-6ZM378.89,600.21c-4.02,1.18-4.57,6.18-2.76,9.34,4.93,8.61,36.1,15.44,45.55,14.44,5.29-.56,14.72-5.3,10.56-11.57-.42-.63-6.21-5.09-6.79-5.23-1.25-.32-2.83.67-4.33.37-7.15-1.42-37.62-8.7-42.24-7.35Z"/>
  <path class="cls-6" d="M589.19,170c19.89,2.77,55.16,22.03,67.42,38.08,19.62,25.7,19.77,50.78,9.6,80.44-.93,2.72-3.85,6.8-4,9.04-.23,3.61,5.87,19.89,6.81,26.09,2.54,16.73.97,33.36-2.91,49.77-1.77,7.48-10.81,27.69-11,32.09s3.61,14.12,4.06,20c.56,7.41.08,15.14-1.04,22.43-8.78-.06-17.31-1.4-25.94,1.07-1.21,1.72,4.1,4.89,5,5.99-30.04,9.75-44.93,44.42-4.82,53.32,17.8,3.95,69.28,4.29,79.27,19.72,3.2,4.94,1,3.75-.44,5.95-1.11,1.69-3.24,6.06-5.32,5.85-30.4-12.57-64.85-16.8-97.68-17.85,1.24,10.85,19.18,12.49,28,13.99,1.56,1.52-4,15.28-5.99,16.52-1.08.67-21.36-.8-25.5-.5-12.92.92-26.88,5.13-39.51,7.99-.94-3.81,4-7.93,4.78-11.73,1.25-6.12.22-14.01-3.34-19.21-1.98-2.89-9.81-7.78-9.25-10.41.51-2.36,10.1-9.45,12.21-11.76,23.01-25.21,35.61-69.83,26.1-102.89-.83-2.89-4.7-10.78-4.53-12.47.21-2.07,6.38-7.78,7.87-10.2,12.79-20.76,14.74-49,10.9-72.57-.72-4.4-6.06-19.15-5.77-21.21.19-1.32,6.43-8.82,7.84-11.25,19.53-33.52,13.85-73.49-16.34-98.28-2.31-1.9-11.03-6.53-11.46-7.05-2.47-2.95,3.72-1.16,4.99-.98Z"/>
  <path class="cls-3" d="M752.19,489c2.21,6.42,7.31,11.25,10.18,17.32,18.07,38.25-7.72,85.26-47.16,96.2-8.22,2.28-14.88.49-22.46,1.58-5.42.77-5.34,7.9-7.74,12.23-7.95,14.38-24.58,12.67-28.72,19.28-1.95,3.12-1.23,16.4-2.35,21.65-.92,4.3-5.39,16.1-10.42,16.54-2.04.18-5.2-3.68-7.34-.8-8.93-16.68-2.1-30.38,5-45.99-1.45-1.31-7.78,2.74-9,3.99-1.87-2.56-6.54.94-8.32,2.18-13.09,9.12-11.97,22.93-15.68,36.82-10.4-7.17-12.19-19.86-9.3-31.8,1.09-4.51,11.48-25.96,9.29-28.2-.49-.5-4.37.06-5.05,1.44-9.4,14.74-17.35,25.96-14.95,44.55-2.22.43-12.21-.6-13.01,0-.16.12.1,1.44,0,2-17.52-10.95-10.63-31.52-3.49-46.99,1.42-3.07,15.61-25.97,14.48-27.01-8.15-.18-12.46,9.35-18,13.99.07-.65-.04-1.34,0-2,.22.22,1.02-.15,1-.5-.07-1.09-1.47.03-1,.5-6.18,1.17-10.87,6.03-17.02,8.48-16.64,6.65-32.36,4.87-49.48,1.51l.49,4.01c-4.23-6.6-4.25-12.57.16-19.34,7.1-10.89,39.27-13.94,52.05-16.95,5.64-1.33,11.13-3.4,16.79-4.71.95,1.89,3.38.62,4.84.36,14.94-2.72,28.07-6.15,43.65-5.35,2.88.15,6.95,2.53,9.51,0,7.79,1.08,16.7,3.54,23.98,6.52,9.57,3.92,17.51,10.58,27.01,14.48,1.15-3.26-10.04-14.05-8.99-14.99,13.88-1.02,41.06-17.88,42.04-32.5.12-1.85.8-4.11-2.05-3.51,1.44-2.2,3.64-1.02.44-5.95-9.99-15.44-61.47-15.77-79.27-19.72-40.1-8.91-25.21-43.57,4.82-53.32,37.15,7.79,83.78,10.87,115,34ZM730.94,502.75c2.86-3.33.24-8.78-2.79-11.21-11.51-9.22-65.76-22.51-80.38-20.45-1.34.19-9.53,3.01-9.66,3.51-2.15,7.88,9.72,10.24,15.08,11.91,13.11,4.08,27.74,6.41,41.21,9.79,6.34,1.59,32.21,11.49,36.54,6.47ZM611.92,575.24c-5.87,1.02-14.58,6.5-7.7,12.22,1.49,1.24,12.47,6.08,14.99,7.01,6.1,2.27,12.4,4.95,18.7,1.73,8.23-4.21,3.29-11.3-2.38-15.05-5.58-3.69-17.01-7.07-23.6-5.92Z"/>
  <path class="cls-6" d="M499.19,623c2.33,1.76,12.33,6.05,15.45,7.05,12.48,3.98,25.9,3.97,38.55.95v14.5c0,11.63,15.08,25.36,25.97,28.03,5.44,1.34,11.28.12,14.42.7,1.4.26,7.69,7.76,10.63,8.47-.21,14.04-3.66,27.85-9.16,40.66-2.56,5.97-9.79,16.01-11.18,20.82-1.03,3.56.36,11.86-2.31,12.69l-28.87,3.13-47.49,1.01c3.42-.44,5.27-2.28,6.79-2.91,24.12-10.01,37.75-30.71,34.12-57.5-.83-6.16-3.77-9.88-10.36-9.61s-16.48,3.3-24.06,4.01c-35.02,3.29-75.67-2.47-108.75-14.23-10.36-3.68-19.69-6.62-26.74-14.76-14.09-16.3-21.68-29.31-25-51l1.99-2.99c8.78,24.25,27.01,40.47,49.34,52.16,28.61,14.98,95.67,22.61,123.59,5.25,7.03-4.37,20.48-17.4,7.63-22.46-16.11-6.35-23.04-2.13-33.97-20.03-.58-.94-2.65-3.31-.58-3.92Z"/>
  <path class="cls-3" d="M376.19,666c7.04,8.14,16.37,11.08,26.74,14.76,33.08,11.75,73.73,17.52,108.75,14.23,7.59-.71,17.16-3.73,24.06-4.01s9.53,3.45,10.36,9.61c3.63,26.8-10,47.49-34.12,57.5-1.52.63-3.37,2.47-6.79,2.91-1.81.23-4.07-.04-6,0l-.5-.98-.5.98c-1,0-2,.02-3,0l-.5-.98-.5.98c-2.13-.04-4.2-.98-6.46-1.04-11.55-.3-23.02.16-34.54-.96.22-.03,4.38-1.09,4-1.99-31.44-5.06-58.91-26.64-74.55-53.95l-1.44,1.94c-1.54-6.39-3.4-12.79-3.99-19.51s1.03-13.22-1.01-19.49ZM453.88,714.71c3.6-4.51.37-7.99-3.64-10.27s-35.15-12.06-39.69-12.38c-8.59-.61-10.77,5.36-5.88,11.95,8.44,11.38,39.21,23.21,49.22,10.69Z"/>
  <path class="cls-6" d="M754.19,490c.27.35.59.82,1,1,32.51,14.78,42.42,56.94,28.49,87.99-10.56,23.54-42.22,46.23-68.13,47.91-4.01.26-8.26-2.12-9.66-1.78-2.13.52-5.16,11.42-7.28,14.8-4.2,6.71-15.42,14.76-23.44,12.64-2.08-.55-4.58-3.65-7-2.12-2.91,1.85-4.05,14.88-2.51,17.59,2.01,3.56,5.77-4.98,6.19-5.09,2.05-.5,7.2.05,7.43,2.55.95,10.33-9.88,19.6-19.6,20.49-11.89,1.1-18.09-2.9-23.49-12.98,2.14-2.88,5.29.98,7.34.8,5.04-.44,9.5-12.24,10.42-16.54,1.12-5.25.4-18.53,2.35-21.65,4.13-6.61,20.77-4.9,28.72-19.28,2.39-4.33,2.32-11.46,7.74-12.23,7.58-1.08,14.24.7,22.46-1.58,39.44-10.94,65.23-57.94,47.16-96.2-2.87-6.07-7.96-10.9-10.18-17.32.37.27,1.25.44,2,1Z"/>
  <path class="cls-3" d="M304.19,518c-.46-.86-1.13-2.97-1.51-3.03-1.64-.2-3.27.55-3.98,2.04-2.06,4.33-1.68,16.6-2.77,22.23-4.28,22.13-26.17,31.73-46.97,27.48-2.88-.59-16.48-6.11-17.78-4.73-.38.4.83,4.37-1,5.01-5.25-13.95,13.32-25.18,24.8-27.7,4.9-1.08,26.08-1.33,27.2-2.31,2.05-1.77-5.98-4.24-6.95-4.55-3-.96-4.99.73-7.06-2.44,2.92.52,2.21-1.35,1.77-3.26-2.16-9.28-11.93-16.8-21.28-17.73-14.53-1.45-28.91.44-43.5-3.5-5.11-1.38-10.37-5.22-15.49-4.51l.5,4c-15.98-13.51-14.61-37.5,7.5-40,24.73-2.8,31.11,10.67,49.48,16.52,8.29,2.64,19.01,3,27.47,5.53,14.33,4.28,25.83,16.47,29.55,30.95ZM203.93,469.24c-4.49.25-12.28,3.78-11.75,9.16,1.16,11.79,30.58,17.07,30.08,4.13-.29-7.51-11.81-13.65-18.33-13.29Z"/>
  <path class="cls-4" d="M528.97,38.28c12.05-1.53,46.27-1.61,49.79,13.65,3.35,14.53-9.05,62.22-14.07,78.07-.91,2.88-3.96,14.17-6.17,14.89-12.29-1.39-24.52-3.57-36.83-4.87-3.07-.33-14.21.74-15.36-2.64-1.02-2.99-.32-24-.17-28.91.44-14.82,2.17-51.86,10.63-63.37,3.47-4.72,6.45-6.07,12.2-6.8ZM537.01,44.24c-4.06.15-9.62,1.45-12.05,5.03-3.49,5.12-7.38,29.7-6.65,36.12.55,4.83,4.9,15.27,10.46,15.6,11.15.66,21.27-27.75,22.32-36.6,1.47-12.39.46-20.69-14.07-20.15Z"/>
  <path class="cls-6" d="M230.19,567c1.83-.63.62-4.61,1-5.01,1.3-1.38,14.89,4.14,17.78,4.73,20.8,4.25,42.69-5.36,46.97-27.48,1.09-5.63.71-17.9,2.77-22.23.71-1.49,2.34-2.24,3.98-2.04.38.06,1.05,2.16,1.51,3.03.39.73.65,1.21,1,2l-.98.51.98.49c.2.5.65.99,1,2l-.98.51.98.49c.11.35.7.86,1,2l-1.01.53,1.01,1.47c.95,4.12,2.62,7.93,2.98,12.52.91,11.37-1.42,21.58-3.98,32.48,2.37,2.57,8.25-10.44,8.76-11.73,1.57-3.99,2.29-8.26,3.73-12.26,3.58,6.53,6.49,13.44,9.98,20.02,6.18,11.65,9.38,11.93,7.54,27.5-.9,7.62-16.02,16.22-22.98,18.02-9.27,2.4-16.08.98-25.04-1.55,1.31-3.84,4.53-6.41,6.18-10.31,1.05-2.46,2.05-4.93,1.8-7.69-14.52,7.84-26.88,21.77-44.99,14.99,4.07-6.28,5.07-12.62,6.11-19.87,6.17-.23,13.1-2.01,18.57-4.93,2.04-1.09,12.29-8.23,9.31-11.18-1.17-1.16-20.58,5.47-24.62,5.87-10.07,1.01-26.36-2.22-30.38-12.88Z"/>
  <path class="cls-6" d="M488.19,893c-1.94-2.08-5.19-3.53-6-6.99l95,1.99c2.06,2.06-3.09,18.01-2.94,21.43.13,3.04,4.09,10.91,5.2,14.81,4.19,14.78,8.06,39.72-4.61,51.42-8.82,8.14-18.35,3.31-26.65-1.65.23-3.23,4.61-3.24,7.05-5.45,13.18-11.97-1.04-32.82-11.57-41.52-1.91-1.58-7.19-3.73-7.43-4.07-2.21-3.2,9.17-7.83,5.52-13.02-.88-1.24-24.49-5.2-28.59-6.41-7.4-2.18-14.42-7.07-21.98-7.52-.54-.59-1.33-1.29-2-2l-1-1Z"/>
  <path class="cls-4" d="M474.96,36.28c15.22-1.74,25.44.49,25.31,18.22-.12,15.69-5.18,33.82-5.13,49.96-1.69,8.76,3.43,25.17.9,32.9-.39,1.19-1.18,1.58-2.36,1.64l-45.87.86-1.47-1.53c-2.67-22.41-5.87-46.25-4.21-68.87.52-7.12,3.2-20.38,9.1-24.9,4.92-3.77,17.5-7.57,23.72-8.28ZM464.95,43.2c-11.14,1.51-14.23,19.06-14.82,28.26-.66,10.34.17,40.93,11.3,45.79,5.76,2.51,10.9-2.22,13.24-7.24,4.59-9.85,5.36-38.18,4.49-49.48-.68-8.9-2.7-18.88-14.22-17.32Z"/>
  <path class="cls-4" d="M583.19,110c2.65,1.31,4.66,5.35,7.71,5.82,9.18,1.44,21.01-22.95,22.03-30.58,1.3-9.78-4.42-21.37-15.79-17.79-4.58,1.44-3.14,6.08-6.94,6.55,1.06-4.99.22-11.91,6.57-12.93,10.87-1.74,38.85,6.96,41.96,18.9,3.58,13.74-8.39,43.51-14.35,56.71-3.8,8.43-7.84,16.99-13.78,24.19-4.38-3.22-35.84-10.22-36.97-11.8-.88-1.23-.41-2.93-.22-4.31,1.4-9.91,7.32-24.16,9.78-34.75Z"/>
  <path class="cls-2" d="M446.17,836c-.06,3.85,7.43,18.72,4.39,21.1-.87.68-4.37,1.68-5.72,2.05-18.85,5.27-47.77-1.94-56.54-20.77-12.03-25.83,1.24-57.99,31.4-60.37,7.24-.57,29.7,3.1,34.49,8.47,3.29,3.68-2.8,17.21-6.5,20.41-10.23-10-33.97-10.6-36.42,6.69-3.38,23.84,15.55,30.19,34.9,22.41Z"/>
  <path class="cls-2" d="M661.08,773.11c-.02,7.15-2.26,14.04-3.91,20.89-17.12-6.79-34.11,3.01-33.01,22.46,1.2,21.14,21.29,19.96,34.5,9.53,1.92,2.72,10.18,15.71,9.07,17.98-2.32,4.77-21.59,10.52-27.07,11.01-29.81,2.68-44.11-15.95-41.47-44.47,2.67-28.74,35.68-46.2,61.88-37.41Z"/>
  <path class="cls-2" d="M531.19,844v14.5c0,4.8-6.7,5.16-10.51,5.49-14.78,1.25-29.73-1.39-44.49-.98v-81h23.5c3.45,0,.53,17.8.46,20.46-.28,10.85-1.21,27.85,0,38.09.12,1.01.46,3.45,1.55,3.45h29.5Z"/>
  <path class="cls-4" d="M428.94,56.24c2.88,2.48-.06,34.65.26,41.25.72,14.99,4.07,29.87,7,44.51l-34.33,6.06c-1.04-.26-6.85-14.31-7.69-16.54-6.16-16.36-14.6-50.14-.88-63.91,5.35-5.37,29.37-16.77,35.65-11.36ZM398.46,76.29c-6.33,5.1-3.82,40.68,3.74,46.19,8.45,6.16,15.61-4.48,16.72-12.24,1.35-9.39,2.03-36.45-12.12-36.14-1.54.03-7.22,1.29-8.34,2.19Z"/>
  <path class="cls-3" d="M491.19,896c7.55.45,14.57,5.34,21.98,7.52,4.09,1.21,27.71,5.17,28.59,6.41,3.66,5.18-7.72,9.82-5.52,13.02.24.35,5.52,2.49,7.43,4.07,10.53,8.7,24.75,29.55,11.57,41.52-2.43,2.21-6.82,2.22-7.05,5.45-15.79-9.43-32.35-29.32-40.53-45.97-6.63-13.5-5.55-19.98-16.47-32.03Z"/>
  <path class="cls-6" d="M326.19,522l1.99-6.99,26.04,38.46c20.07,24.04,58.74,23.99,87.49,29.51,8.73,1.68,3.54,3.15-1.3,4.73-20.15,6.59-52.57,3.18-72.99-2.43-2.87-.79-11.65-3.21-13.61-4.39-2.18-1.32-2.26-3.23-3.61-4.89-11.33-13.98-21.44-36.21-24-54Z"/>
  <path class="cls-2" d="M577.19,779v82c-4.42-1.28-22.46,3.59-23.86-.64l-1.19-75.91.49-2.51c1.04-1.49,20.92-1.78,24.56-2.94Z"/>
  <path class="cls-4" d="M649.26,104.09c6.45-1.31,12.91,6.17,14.64,11.7,4.79,15.36-7.94,37.26-17.32,49.11-1.54,1.94-6.68,9.12-8.71,8.94-3.5-.31-9.29-7.06-13.69-7.34-.82-.44-1-1.06-1.02-1.95-.04-2.53,13.94-27.76,16.19-32.88,3.87-8.81,7.49-18.25,9.91-27.59Z"/>
  <path class="cls-2" d="M712.18,755c.62,16.88-2.28,33.58-4.2,50.31-1.57,3.06-15.92,4.76-19.8,5.69l-.87-50.37c.31-1.32,1.41-1.24,2.36-1.63,1.93-.8,21.69-4.8,22.51-4Z"/>
  <path class="cls-6" d="M214.19,527c1.44.05,1.29.53,2,1,.2.13.19.72.49.98l.51-.98c.41.22.68.83,1,1l2,1c2.86,1.67,9.55,5.04,9.86,8.68.11,1.35-6.8,9.03-8.04,11.65-3.02,6.38-3.69,13.12-1.54,19.9,1.18,3.74,4.07,6.03,4.72,9.77-13.03,5.05-35.01,4.88-40-10.99,10.25-3.11,21.69-10.48,25.72-20.78,4.54-11.61.8-13.9-7.72-21.21,3.35-.63,6.42.54,9.53.84.73.07,1.34-.85,1.47-.85Z"/>
  <path class="cls-6" d="M190.19,590.01c9.45,2.4,24.84,3.87,33.7-.8,2.81-1.48,5.59-6.26,8.63-5.98.85.08,10.84,5.22,11.18,5.77,2.57,4.24-1.05,12.52-4.07,15.96-13.17,15.03-46.8,6.3-49.44-14.94Z"/>
  <path class="cls-1" d="M583.19,110c2.76-11.86,4.48-24.08,7-36,3.8-.47,2.36-5.11,6.94-6.55,11.38-3.58,17.1,8.01,15.79,17.79-1.02,7.62-12.84,32.02-22.03,30.58-3.05-.48-5.06-4.52-7.71-5.82Z"/>
  <path class="cls-6" d="M190.19,505l-.5-4c5.12-.7,10.38,3.13,15.49,4.51,14.59,3.94,28.97,2.05,43.5,3.5,9.35.93,19.12,8.45,21.28,17.73.44,1.91,1.15,3.77-1.77,3.26-.31-.47-.17-1.68-.91-2.54-3.7-4.28-7.22,2.55-10.79,3.34-2.52.56-5.16-.07-7.69.31s-6.9,2.45-8.93,1.8c-1.29-.41-2.09-2.77-3.17-3.95s-3.3-.24-2.5-2.93c1.65-.33,10.44-4.02,8.99-6.01-.72-.99-20.67-2.61-24.22-3.28-10.61-2.01-18-4.53-26.77-10.73l-1-1c-.21-.16-.81.16-1,0Z"/>
  <path class="cls-6" d="M381.19,705l1.44-1.94c15.64,27.31,43.11,48.9,74.55,53.95.39.9-3.77,1.96-4,1.99-6.65.76-22.08-1.23-29.5-2-3.51-.37-15.34-1.25-17.47-2.53-2.3-1.38-12.71-17.11-14.56-20.44-5.51-9.97-7.85-18.11-10.48-29.02Z"/>
  <path class="cls-6" d="M568.19,596c-.04.66.07,1.35,0,2-.14,1.28-10.06,17.42-11.33,18.67-10.94,10.75-41.87,6.69-52.63-3.22-1.85-1.7-1.34-2.35-2.03-3.44l-.49-4.01c17.11,3.36,32.83,5.14,49.48-1.51,6.15-2.46,10.84-7.31,17.02-8.48Z"/>
  <path class="cls-6" d="M568.19,596c-.47-.47.93-1.59,1-.5.02.35-.78.72-1,.5Z"/>
  <path class="cls-2" d="M695.19,547.01c-7.29,6.5-26.78,15.15-36.24,13.78-4.6-.67-10.38-5.12-15.76-4.8-.72-.85,6.14-14.42,6.66-17.05l45.34,8.07Z"/>
  <path class="cls-3" d="M214.19,527c-.13,0-.75.92-1.47.85-3.1-.3-6.18-1.46-9.53-.84,8.52,7.31,12.25,9.6,7.72,21.21-4.03,10.3-15.47,17.67-25.72,20.78-.48-1.54-.83-2.19-1-4l2.01-13.99,1,2.99c2.93-2.98,7.78-12.7,8.77-16.73.37-1.51.88-4.33-.78-5.27,5.81-6.4,10.37-8.8,19-5Z"/>
  <path class="cls-6" d="M327.19,475l-8.48-17.02c-.55-1.74-1.32-3.45-1.81-5.2-.27-.95-1.66-3,.28-2.77,8.27,17.46,25.51,26.17,42.77,32.74l23.24,6.76c-13.37,3.58-33.03.53-45.69-5.31-3.2-1.48-7.26-3.19-7.35-7.21-.42.16-.79.99-.96,1.01-1.11.13-1.4-2.12-2-3Z"/>
  <path class="cls-2" d="M694.91,820.23c21.44-4.45,19.12,23.45.77,23.85-15.43.34-13.21-21.27-.77-23.85Z"/>
  <path class="cls-6" d="M632.19,631c-1.44,1.5-5.15,8.11-6.17,10.33-5.2,11.35-4.32,20.79-1.83,32.66-7.67.76-10.24-.02-16-4,3.71-13.89,2.59-27.7,15.68-36.82,1.78-1.24,6.45-4.74,8.32-2.18Z"/>
  <path class="cls-7" d="M195.19,532c1.66.94,1.16,3.76.78,5.27-.99,4.03-5.85,13.75-8.77,16.73l-1-2.99-2.01,13.99c-1.09-11.85,3.01-24.2,11-33Z"/>
  <path class="cls-7" d="M629.19,564c-2.56,2.54-6.63.16-9.51,0-15.58-.8-28.7,2.63-43.65,5.35-1.46.27-3.89,1.54-4.84-.36,20.78-4.79,36.31-8,58-5Z"/>
  <path class="cls-6" d="M588.19,656c.21,1.64,3.02,4.36,1.99,7-5.97-.46-10.03-1.89-14.99-5,.09-.56-.17-1.88,0-2,.8-.6,10.78.42,13.01,0Z"/>
  <path class="cls-3" d="M220.19,530l-2-1c.58.32,1.24.55,2,1Z"/>
  <path class="cls-3" d="M307.19,528l-1.01-1.47,1.01-.53c.15.57-.14,1.4,0,2Z"/>
  <path class="cls-3" d="M216.19,528h1l-.51.98c-.3-.26-.29-.85-.49-.98Z"/>
  <path class="cls-3" d="M306.19,524l-.98-.49.98-.51c.1.3-.1.7,0,1Z"/>
  <path class="cls-3" d="M305.19,521l-.98-.49.98-.51c.12.27-.12.71,0,1Z"/>
  <path class="cls-3" d="M192.19,506c-.38-.27-.64-.72-1-1l1,1Z"/>
  <path class="cls-3" d="M755.19,491c-.41-.18-.73-.65-1-1,.38.28.69.65,1,1Z"/>
  <path class="cls-6" d="M495.19,761c-.33,0-.67,0-1,0l.5-.98.5.98Z"/>
  <path class="cls-6" d="M499.19,761c-.33,0-.67,0-1,0l.5-.98.5.98Z"/>
  <path class="cls-3" d="M489.19,894c-.32-.34-.68-.65-1-1l1,1Z"/>
  <path class="cls-8" d="M566.19,413c1.41,27.68-6.26,57.74-19.48,82.02-16.61,30.48-46.69,47.14-80.21,30.16-27.42-13.88-40.08-45.23-50.84-72.16-2.82-2.14-6.41-1.58-9.44-3.56s-6.3-7.85-2.03-9.97c4.01-1.99,19.06,5.61,24.99,7.01,47.69,11.24,85.02-7.65,120.52-37.5,1.2-1.34-4.75-1.85-5.13-1.89-6.28-.63-14.73.52-5.87-8.11,9.55-9.3,29.12-4.62,37.01,4.97,2.13,2.59,6.9,11.05,3.5,13.55l-13.02-4.52ZM513.94,473.26c-16.31,2.24-38.5,20.51-40.67,37.33-.95,7.37,1.05,7.45,7.47,9.36,12.5,3.72,23.67,1.47,34.75-5.14,7.77-4.64,23.42-19.96,22.76-29.29-.83-11.65-15.14-13.51-24.3-12.25Z"/>
  <path class="cls-8" d="M415.19,431c-29.74-7.16-46.62-37.76-30.07-65.4-31.88-18.93-33.5-67.2-16.74-96.91,21.03-37.27,66.11-36.58,82.29,4.32,7.96,20.13,7.33,44.06-1,63.97-1.19,2.85-4.04,4.84-3.56,8.38,7.6,3.94,17.78,8.1,19.07,17.63-17.93-7.03-36.18-11.91-54.98-4.48-15.6,6.17-26.21,20.41-23.02,37.48.22,1.19.88,1.62,1,2,.17.55-.19,1.53,0,2,10.94,27.2,56.6,29.99,77.02,10.52,3.88-3.7,5.87-9.88,10.98-11.52.27,2.66.77,5.07,1,8-11.06,23.31-38.36,30.36-62,24ZM432.19,344.99c2.3,2.11,6.4-4.87,7.17-6.32,15.12-28.84,6.68-100.05-38.71-84.71-33.8,11.42-41.02,71.24-19.97,96.05,1.88,2.21,7.44,7.65,10.19,7.8,2.51.14,13.17-11.05,18.32-9.82-1.03-3.81-4.88-5.75-7.03-9.47-7.56-13.07-4.97-34.25,7.53-43.53,21.82-16.19,38.84,15.94,30.78,34.78.4,2.76-8.95,14.59-8.27,15.21ZM416.91,302.16c-7.6,1.19-9.48,15.4-2.19,16.83,12.76,2.5,11.71-18.33,2.19-16.83Z"/>
  <path class="cls-8" d="M577.18,359.99c3.17-1.48,17.19,8.02,15,10-15.72-2.52-32.91-.88-47.37,6.13-2.91,1.41-12.72,8.81-14.12,8.84-1.55.03-2.89-1.57-4.23-1.75-19.89-2.76-30.88-8.73-41.45-26.54-34.85-58.73,29.65-151.32,83.64-106.64,30.82,25.51,26.82,78.14,8.53,109.96ZM532.94,250.26c-30.18,4.14-50.02,45.6-47.74,73.23,1.47,17.82,14.57,47.79,34.57,50.43,14.1,1.86,15.63-4.82,26.04-9.79,8.24-3.93,15.75-2.44,21.81-10.19,23.57-30.16,16.85-110.73-34.67-103.67Z"/>
  <path class="cls-8" d="M528.97,185.28c19.34-2.44,46.48,11.06,51.76,30.68,1.11,4.12,2.83,17.61-3.1,18.09-3.8.31-8.73-8.22-11.97-11.02-10.18-8.81-26.86-11.52-39.96-12.1-5.44-.24-11.18,3.86-13.08-3.85-2.94-11.93,4.91-20.35,16.35-21.79Z"/>
  <path class="cls-8" d="M421.93,183.7c.36-.21-.1-1.78,1.68-1.78,10.48.02,17.65,6.25,18.49,16.7,1.1,13.71-11.58,6.47-21.41,7.38-6.94.64-16.73,4.52-22.45,8.55-4.11,2.9-16.01,19.36-17.99,6.87-2.98-18.77,17.03-36.9,34.67-38.2,2.22-.16,5.01,1.61,7,.46Z"/>
  <path class="cls-6" d="M476.19,399c-5.11,1.64-7.1,7.83-10.98,11.52-20.42,19.47-66.09,16.68-77.02-10.52l1.01-.53-1.01-1.47c-.12-.38-.78-.81-1-2l1.99-4.99c.07,4.61,6.39,8.43,10.12,10.38,15.87,8.29,38.16,6.99,54.58.81,7.54-2.84,13.46-9.76,22.34-6.73,1.98,1.2-.09,3.06-.04,3.53Z"/>
  <path class="cls-7" d="M378.89,600.21c4.62-1.35,35.09,5.92,42.24,7.35,1.5.3,3.08-.69,4.33-.37.58.15,6.37,4.6,6.79,5.23,4.16,6.27-5.27,11.02-10.56,11.57-9.45.99-40.63-5.84-45.55-14.44-1.81-3.16-1.26-8.17,2.76-9.34Z"/>
  <path class="cls-7" d="M345.44,500.26c1.89-1.79,7.51-1.37,10.13-1.13,4.96.45,34.5,8.84,37.67,11.32,4.2,3.29,5.28,7.19.31,10.42-8.64,5.6-34.25-.29-42.7-6.03-4.43-3.01-10.79-9.47-5.41-14.57Z"/>
  <path class="cls-6" d="M477.19,407c.69,8.83-.62,14.92-5.61,22.89-10.62,16.97-38.1,18.44-54.08,8.3-3.65-2.32-4.48-6.27-8.3-6.2l5.99-.99c23.64,6.36,50.94-.69,62-24Z"/>
  <path class="cls-8" d="M537.19,543c-5.86,14.72-31.76,21.33-46,20-4.92-.46-25.66-7.03-24-13.48,1.18-2.04,4.12-1.06,6-.52,3.73,1.08,7.1,3.37,11.61,3.89,18.45,2.14,36.96-2.99,50.39-15.89.33.3,5.28-2.23,2,6Z"/>
  <path class="cls-7" d="M341.92,362.24c24.95-4.1,5.79,32.31-7.96,30.58-16.52-2.08-8.88-27.81,7.96-30.58Z"/>
  <path class="cls-7" d="M418.97,363.2c11.47-.9,28.69,9.17,14.15,19.23-8.36,5.78-32.74,6.23-30.91-7.85.78-6.01,11.37-10.97,16.77-11.39Z"/>
  <path class="cls-7" d="M338.91,282.15c3.58-.98,7.26,2.8,9.11,5.52,5.3,7.81,4.14,19.65-1.82,26.84-8.38,10.12-18.62-3.17-18.09-13.04.24-4.46,6.42-18.13,10.8-19.33Z"/>
  <path class="cls-6" d="M473.19,549l-1-1.99c2.69-1.92,5.23-.01,6.5-.01h17c2.68,0,15.49-4.01,18.76-5.24,5.62-2.11,13.97-8.45,20.09-6.78,1.06.29.55,1.92.65,2.01-13.43,12.9-31.94,18.03-50.39,15.89-4.51-.52-7.88-2.81-11.61-3.89Z"/>
  <path class="cls-6" d="M537.19,543c2.89-1.87,1.61.02.99,1.49-8.41,19.75-30.67,22.86-49.98,20.5l3-1.99c14.24,1.33,40.14-5.28,46-20Z"/>
  <path class="cls-7" d="M730.94,502.75c-4.33,5.03-30.2-4.88-36.54-6.47-13.47-3.37-28.1-5.7-41.21-9.79-5.36-1.67-17.22-4.02-15.08-11.91.14-.5,8.33-3.32,9.66-3.51,14.62-2.06,68.87,11.23,80.38,20.45,3.03,2.43,5.66,7.89,2.79,11.21Z"/>
  <path class="cls-7" d="M611.92,575.24c6.59-1.15,18.02,2.24,23.6,5.92,5.67,3.75,10.62,10.84,2.38,15.05-6.3,3.22-12.6.53-18.7-1.73-2.51-.93-13.49-5.77-14.99-7.01-6.88-5.72,1.84-11.2,7.7-12.22Z"/>
  <path class="cls-7" d="M453.88,714.71c-10.01,12.52-40.77.69-49.22-10.69-4.89-6.59-2.71-12.56,5.88-11.95,4.55.32,35.56,10.03,39.69,12.38s7.24,5.76,3.64,10.27Z"/>
  <path class="cls-7" d="M203.93,469.24c6.52-.37,18.04,5.77,18.33,13.29.49,12.94-28.92,7.66-30.08-4.13-.53-5.38,7.27-8.9,11.75-9.16Z"/>
  <path class="cls-1" d="M537.01,44.24c14.53-.54,15.54,7.77,14.07,20.15-1.05,8.84-11.17,37.26-22.32,36.6-5.56-.33-9.91-10.76-10.46-15.6-.73-6.43,3.17-31,6.65-36.12,2.43-3.57,7.99-4.88,12.05-5.03Z"/>
  <path class="cls-1" d="M464.95,43.2c11.52-1.56,13.54,8.41,14.22,17.32.87,11.3.1,39.63-4.49,49.48-2.34,5.02-7.48,9.76-13.24,7.24-11.13-4.86-11.96-35.44-11.3-45.79.58-9.2,3.68-26.75,14.82-28.26Z"/>
  <path class="cls-1" d="M398.46,76.29c1.12-.9,6.8-2.16,8.34-2.19,14.16-.3,13.47,26.76,12.12,36.14-1.11,7.76-8.27,18.4-16.72,12.24-7.56-5.51-10.08-41.09-3.74-46.19Z"/>
  <path class="cls-6" d="M513.94,473.26c9.16-1.26,23.47.6,24.3,12.25.66,9.33-14.99,24.65-22.76,29.29-11.07,6.61-22.25,8.86-34.75,5.14-6.42-1.91-8.42-1.99-7.47-9.36,2.17-16.81,24.36-35.09,40.67-37.33ZM519.94,478.28c-8.85-3.71-22.89,4.79-29.27,10.7-12.81,11.84-16.08,24.95,6.94,21.94,10.68-1.4,30.36-15.67,26.4-28.24-.09-.29-3.79-4.28-4.07-4.4Z"/>
  <path class="cls-2" d="M432.19,344.99c-.68-.62,8.68-12.45,8.27-15.21,8.07-18.84-8.96-50.97-30.78-34.78-12.5,9.27-15.09,30.45-7.53,43.53,2.15,3.72,6,5.66,7.03,9.47-5.15-1.23-15.81,9.95-18.32,9.82-2.75-.15-8.31-5.58-10.19-7.8-21.04-24.81-13.83-84.63,19.97-96.05,45.39-15.33,53.83,55.87,38.71,84.71-.76,1.46-4.86,8.44-7.17,6.32Z"/>
  <path class="cls-2" d="M416.91,302.16c9.52-1.5,10.57,19.33-2.19,16.83-7.29-1.43-5.41-15.64,2.19-16.83Z"/>
  <path class="cls-3" d="M388.19,400c-.19-.47.17-1.45,0-2l1.01,1.47-1.01.53Z"/>
  <path class="cls-2" d="M532.94,250.26c51.53-7.06,58.24,73.51,34.67,103.67-6.06,7.75-13.57,6.26-21.81,10.19-10.41,4.97-11.94,11.65-26.04,9.79-20-2.64-33.1-32.61-34.57-50.43-2.28-27.63,17.56-69.09,47.74-73.23ZM537.92,291.24c-31.43,5.31-34.55,67.87,1.79,65.81s33.07-71.7-1.79-65.81Z"/>
  <path class="cls-3" d="M519.94,478.28c.28.12,3.98,4.11,4.07,4.4,3.95,12.57-15.72,26.84-26.4,28.24-23.02,3.02-19.75-10.1-6.94-21.94,6.39-5.9,20.42-14.41,29.27-10.7Z"/>
  <path class="cls-8" d="M537.92,291.24c34.87-5.89,36.38,63.85,1.79,65.81-36.34,2.06-33.22-60.5-1.79-65.81ZM543.93,304.26c-7.83-7.33-18.63,9.06-9.14,14.62s14.98-9.15,9.14-14.62Z"/>
  <path class="cls-2" d="M543.93,304.26c5.84,5.47.03,19.99-9.14,14.62s1.31-21.95,9.14-14.62Z"/>
</svg>